<?xml version="1.0" encoding="UTF-8" standalone="no"?>
<svg
   xmlns:dc="http://purl.org/dc/elements/1.1/"
   xmlns:cc="http://creativecommons.org/ns#"
   xmlns:rdf="http://www.w3.org/1999/02/22-rdf-syntax-ns#"
   xmlns:svg="http://www.w3.org/2000/svg"
   xmlns="http://www.w3.org/2000/svg"
   xmlns:xlink="http://www.w3.org/1999/xlink"
   xmlns:sodipodi="http://sodipodi.sourceforge.net/DTD/sodipodi-0.dtd"
   xmlns:inkscape="http://www.inkscape.org/namespaces/inkscape"
   width="744.094488186"
   height="1052.3622047202"
   viewBox="0.0 0.0 196.875 278.4375"
   version="1.1"
   id="svg8"
   sodipodi:docname="drawing.svg"
   inkscape:version="1.0.1 (1.0.1+r74)">
  <defs
     id="defs2">
    <linearGradient
       inkscape:collect="always"
       id="linearGradient2863">
      <stop
         style="stop-color:#ad8305;stop-opacity:1"
         offset="0"
         id="stop2859" />
      <stop
         style="stop-color:#ffe9a6;stop-opacity:1"
         offset="1"
         id="stop2861" />
    </linearGradient>
    <linearGradient
       inkscape:collect="always"
       id="linearGradient2829">
      <stop
         style="stop-color:#05285b;stop-opacity:1"
         offset="0"
         id="stop2825" />
      <stop
         style="stop-color:#ffffff;stop-opacity:1"
         offset="1"
         id="stop2827" />
    </linearGradient>
    <linearGradient
       inkscape:collect="always"
       xlink:href="#linearGradient2829"
       id="linearGradient2831"
       x1="108.09449"
       y1="170.77731"
       x2="106.35609"
       y2="65.695847"
       gradientUnits="userSpaceOnUse" />
    <linearGradient
       inkscape:collect="always"
       xlink:href="#linearGradient2863"
       id="linearGradient2865"
       x1="106.35622"
       y1="193.74666"
       x2="107.64113"
       y2="140.74498"
       gradientUnits="userSpaceOnUse" />
  </defs>
  <sodipodi:namedview
     id="base"
     pagecolor="#ffffff"
     bordercolor="#666666"
     borderopacity="1.0"
     inkscape:pageopacity="0.0"
     inkscape:pageshadow="2"
     inkscape:zoom="1.183861"
     inkscape:cx="215.21821"
     inkscape:cy="442.97445"
     inkscape:document-units="px"
     inkscape:current-layer="layer1"
     inkscape:document-rotation="0"
     showgrid="false"
     inkscape:window-width="1920"
     inkscape:window-height="1043"
     inkscape:window-x="640"
     inkscape:window-y="1440"
     inkscape:window-maximized="1" />
  <metadata
     id="metadata5">
    <rdf:RDF>
      <cc:Work
         rdf:about="">
        <dc:format>image/svg+xml</dc:format>
        <dc:type
           rdf:resource="http://purl.org/dc/dcmitype/StillImage" />
        <dc:title></dc:title>
      </cc:Work>
    </rdf:RDF>
    <rdf:RDF>
      <cc:Work
         rdf:about="">
        <dc:title></dc:title>
      </cc:Work>
    </rdf:RDF>
  </metadata>
  <g
     inkscape:label="Layer 1"
     inkscape:groupmode="layer"
     id="layer1"
     transform="scale(0.9375, 0.9375)">
    <circle
       style="fill:url(#linearGradient2831);fill-opacity:1;fill-rule:nonzero;stroke:#000000;stroke-width:3;stroke-linejoin:round;stroke-miterlimit:4;stroke-dasharray:none;stroke-dashoffset:0;stroke-opacity:1"
       id="path833"
       r="67.580246"
       cy="131.59465"
       cx="106.40359" />
    <path
       style="fill:none;stroke:#000000;stroke-width:3;stroke-linecap:butt;stroke-linejoin:round;stroke-miterlimit:4;stroke-dasharray:none;stroke-dashoffset:0;stroke-opacity:1;paint-order:markers fill stroke"
       d="m 66.794321,88.903242 c 5.827834,-0.03521 8.768454,-5.291567 13.152681,-5.293267 4.384227,-0.0017 7.54391,5.316504 13.152682,5.283067 5.62698,-0.03355 7.499016,-5.352226 13.152686,-5.300367 5.17723,0.04749 7.41574,5.546068 13.15268,5.281067 4.94878,-0.228594 8.44191,-5.739947 13.15268,-5.320747 4.65607,0.414333 7.67847,5.43747 13.15268,5.208427"
       id="path2823"
       sodipodi:nodetypes="czssssc" />
    <path
       style="fill:url(#linearGradient2865);stroke:#000000;stroke-width:3.20000005;stroke-linecap:butt;stroke-linejoin:round;stroke-opacity:1;stroke-miterlimit:4;stroke-dasharray:none;fill-opacity:1"
       d="m 52.549229,172.25924 7.65096,-21.74256 12.362508,22.41249 4.597165,-4.35657 5.673582,-12.81793 10.596761,-15.80521 4.733632,15.48269 9.930653,15.34516 7.2149,-13.78699 7.42773,-6.23017 4.26651,5.95372 1.65611,8.00866 10.05851,-8.80158 2.57271,9.53 5.00835,6.90692 3.68264,-3.19617 6.82596,7.67994 c -13.41667,14.11896 -30.84812,22.45125 -54.29953,22.1067 -20.330212,-0.018 -36.982908,-8.91518 -49.959151,-26.6891 z"
       id="path2857"
       sodipodi:nodetypes="ccccccccccccccccccc" />
    <path
       style="fill:none;stroke:#000000;stroke-width:3.2;stroke-linecap:butt;stroke-linejoin:miter;stroke-miterlimit:4;stroke-dasharray:none;stroke-opacity:1"
       d="m 67.633711,97.547969 h 75.861209 l 7.8596,30.068841 h 5.64444 l -11.28888,11.28889 -11.28889,-11.28889 h 5.64445 c -3.55059,-13.82475 -9.32011,-29.078392 -13.96013,-6.29309 l 6.97128,-0.71839 -8.92041,10.79901 -8.58893,-9.36236 h 5.46237 c -9.48882,-19.12976 -10.76963,-10.50169 -21.048873,4.1374 l 6.714143,0.0535 -9.078603,9.69981 -8.998896,-8.7416 h 5.717013 C 82.442871,106.05165 83.460861,108.64654 77.351373,130.35404 h 5.96377 L 72.671677,142.385 60.748939,129.52943 l 10.849613,0.57705 z"
       id="path2867"
       sodipodi:nodetypes="ccccccccccccccccccccccc" />
  </g>
</svg>
