<?xml version="1.0" encoding="UTF-8" standalone="no"?>
<svg
   xmlns:osb="http://www.openswatchbook.org/uri/2009/osb"
   xmlns:dc="http://purl.org/dc/elements/1.1/"
   xmlns:cc="http://creativecommons.org/ns#"
   xmlns:rdf="http://www.w3.org/1999/02/22-rdf-syntax-ns#"
   xmlns:svg="http://www.w3.org/2000/svg"
   xmlns="http://www.w3.org/2000/svg"
   xmlns:sodipodi="http://sodipodi.sourceforge.net/DTD/sodipodi-0.dtd"
   xmlns:inkscape="http://www.inkscape.org/namespaces/inkscape"
   version="1.1"
   id="Layer_1"
   x="0px"
   y="0px"
   viewBox="0 0 738 852"
   style="enable-background:new 0 0 738 852;"
   xml:space="preserve"
   sodipodi:docname="logo.svg"
   inkscape:version="1.0.1 (1.0.1+r74)"
   inkscape:export-filename="/home/woo457/Dropbox/ecomix/man/figures/logo.png"
   inkscape:export-xdpi="96"
   inkscape:export-ydpi="96"><metadata
   id="metadata1377"><rdf:RDF><cc:Work
       rdf:about=""><dc:format>image/svg+xml</dc:format><dc:type
         rdf:resource="http://purl.org/dc/dcmitype/StillImage" /></cc:Work></rdf:RDF></metadata><defs
   id="defs1375"><linearGradient
     id="linearGradient3463"
     osb:paint="solid"><stop
       style="stop-color:#000000;stop-opacity:1;"
       offset="0"
       id="stop3461" /></linearGradient><rect
     x="127.06258"
     y="552.46236"
     width="559.45147"
     height="247.03684"
     id="rect3425" /><linearGradient
     id="linearGradient3359"
     osb:paint="solid"><stop
       style="stop-color:#000000;stop-opacity:1;"
       offset="0"
       id="stop3357" /></linearGradient></defs><sodipodi:namedview
   pagecolor="#ffffff"
   bordercolor="#666666"
   borderopacity="1"
   objecttolerance="10"
   gridtolerance="10"
   guidetolerance="10"
   inkscape:pageopacity="0"
   inkscape:pageshadow="2"
   inkscape:window-width="1848"
   inkscape:window-height="1016"
   id="namedview1373"
   showgrid="false"
   inkscape:zoom="0.76408451"
   inkscape:cx="229.62369"
   inkscape:cy="478.35023"
   inkscape:window-x="72"
   inkscape:window-y="27"
   inkscape:window-maximized="1"
   inkscape:current-layer="Layer_1" />
<style
   type="text/css"
   id="style1124">
	.st0{fill:#141227;}
	.st1{opacity:0.94;}
	.st2{fill:#FFFFFF;}
	.st3{opacity:0.8;fill:#F2F2F2;enable-background:new    ;}
	.st4{fill:#00A5DC;}
	.st5{fill:#FFF34D;}
	.st6{fill:#B57AB4;}
	.st7{fill:#DB1F26;}
	.st8{fill:#F7A238;}
	.st9{fill:#164F86;}
	.st10{fill:#36A85D;}
	.st11{fill:#F26524;}
	.st12{fill:#EF4782;}
	.st13{fill:#0088C5;}
	.st14{fill:#404040;}
</style>
<title
   id="title1126">tidyposterior</title>
<polygon
   class="st0"
   points="718.4,222.8 369,21 369,21 19.6,222.8 19.6,626.3 369,828 718.4,626.3 "
   id="polygon1128"
   style="fill:#228c3a" />
<g
   class="st1"
   id="g1156">
	
	
	
	
	
	
	
	
	
	
	
	
	
</g>







































































































<path
   class="st7"
   d="m 293.07381,423.93081 c 3.00661,-7.33775 4.7412,-15.00903 6.8227,-22.56912 6.12886,-22.56914 11.44826,-45.36062 16.42074,-68.04092 3.35353,-15.34256 6.93834,-30.57395 10.29187,-45.9165 4.50992,-20.45675 9.01984,-40.80232 14.33923,-61.03671 4.85684,-18.45554 9.59803,-37.02226 18.61788,-54.58838 1.73458,-3.78005 4.27864,-7.11539 7.40089,-10.00601 5.66631,-5.00301 12.37338,-5.00301 17.92404,0.33354 5.08813,4.78064 7.86346,10.56189 10.29188,16.45432 8.09472,18.78909 12.83593,38.24523 17.80841,57.70137 l 3.0066,12.00723 c 1.04076,4.44712 2.08151,8.89423 3.23789,13.23018 2.08151,9.78366 4.16301,19.45614 6.36016,29.2398 4.27863,19.56732 8.55728,39.13464 13.0672,58.70197 3.81608,16.12079 7.63217,32.24161 11.91082,48.25123 5.43502,20.23438 11.21697,40.3576 19.08043,60.0361 6.01322,15.23138 12.83593,30.24041 24.74674,43.24823 7.28526,8.33835 17.11458,14.23079 28.10028,16.89905 2.65969,0.66706 4.50992,2.0012 3.46916,4.44712 -1.04074,2.44592 -3.0066,2.66828 -5.89758,1.89002 -16.3051,-4.11358 -27.75336,-13.00782 -36.65757,-24.45915 -10.63878,-13.56371 -17.23021,-28.57273 -23.12779,-43.9153 -9.82931,-25.57093 -16.76765,-51.80892 -23.1278,-78.04693 -6.01323,-24.79268 -11.44826,-49.58536 -17.11457,-74.48923 -1.96586,-8.44952 -3.70045,-17.01023 -5.55067,-25.45975 -0.11564,-0.44472 -0.34691,-0.77825 -0.5782,-1.11179 -0.46256,-4.66947 -1.5033,-9.22777 -3.12225,-13.67489 0,-1.11177 0,-2.11238 -0.23128,-3.11298 -3.81608,-15.1202 -7.51653,-30.35158 -11.56389,-45.36061 -3.70045,-13.78607 -7.86346,-27.46096 -14.68615,-40.46878 -1.1564,-2.22356 -2.54406,-4.44711 -4.27865,-6.33714 -3.46917,-3.89123 -5.20375,-3.89123 -8.67293,0.11118 -1.61894,1.89002 -3.0066,3.89122 -4.04736,6.11478 -9.13547,17.34377 -13.6454,35.68813 -18.50224,53.92131 -4.85684,18.23319 -8.78856,36.79991 -13.06721,55.14428 -3.46916,15.23138 -6.93834,30.46276 -10.17623,45.69414 -4.50992,20.56792 -9.25111,41.24703 -14.57051,61.70377 -3.5848,13.89724 -7.63217,27.68332 -11.5639,41.58056 l -2.65969,8.33834 c -4.74121,13.34137 -9.59804,26.68272 -16.18947,39.57936 -5.20375,10.1172 -11.33261,19.90086 -20.00554,28.35039 -8.21037,8.00481 -18.50224,13.5637 -29.71922,16.23197 -2.54406,0.66707 -4.39428,0 -5.31939,-1.89002 -0.92511,-1.89003 0.23127,-3.66886 2.54406,-4.22476 20.12118,-5.00301 31.22252,-17.45494 39.89545,-31.7969 10.29187,-17.12141 17.11457,-35.24342 22.66524,-53.81014 0.80948,-3.11298 2.19714,-5.89242 2.42842,-8.89423 z"
   id="path1364"
   style="fill:#20c997;stroke:#0e3c19;stroke-width:5;stroke-linecap:butt;stroke-linejoin:bevel;stroke-miterlimit:4;stroke-dasharray:none;stroke-dashoffset:0;stroke-opacity:1" />
<path
   class="st5"
   d="m 677.59199,520.32211 c -0.92906,-1.5565 -2.78717,-1.77886 -4.52916,-2.11238 -17.07147,-3.0018 -32.40096,-11.56251 -43.43354,-24.34799 -14.74882,-16.67669 -23.5749,-35.46576 -31.70417,-54.58837 -9.52286,-22.45795 -17.07146,-45.47179 -24.27168,-68.48563 -7.54862,-24.01444 -14.86496,-48.14006 -22.41356,-72.26568 -6.61956,-20.90146 -13.47138,-41.69173 -23.34264,-61.81495 -3.6001,-7.11538 -7.5486,-14.1196 -13.93589,-19.90085 -7.78088,-6.89303 -17.07147,-6.89303 -24.85235,0.11118 -3.01944,2.77944 -5.69048,6.00361 -7.89701,9.33895 -4.76142,7.00421 -7.78087,14.56431 -11.61324,21.90206 -3.9485,8.22716 -11.84551,31.68572 -14.51656,40.24642 -8.01314,24.79269 -15.56174,49.69655 -23.22649,74.48923 -7.54861,24.45916 -15.44562,48.80714 -25.20074,72.82157 -4.87757,11.89604 -9.87126,23.68092 -16.95534,34.79871 -0.92907,2.33473 -2.20653,4.5583 -3.83238,6.44832 -6.03888,10.67309 -14.28429,20.01203 -24.15555,27.68332 -9.29059,7.11539 -20.32319,11.45132 -32.74935,13.67489 -2.78718,0.55588 -4.6453,1.77884 -3.83238,4.22475 0.81293,2.44593 3.01945,2.77945 5.92276,2.22357 16.72308,-3.22417 30.89123,-9.89484 42.38834,-20.45675 7.31636,-6.78185 13.00685,-14.45314 18.5812,-22.2356 l 3.83238,-6.11478 c 0.11613,-0.44472 0.23226,-0.77825 0.46453,-1.22296 10.80031,-18.6779 18.69732,-38.24522 26.01366,-58.0349 8.94221,-24.34797 16.49081,-49.02948 24.03943,-73.71099 6.85181,-22.23559 19.16185,-60.14728 26.71046,-82.27169 v 0 c 3.83238,-8.33834 6.96795,-16.89905 11.49712,-25.01504 2.90331,-5.22537 5.92275,-10.33956 10.56805,-14.6755 4.52917,-4.11358 8.47768,-4.11358 13.00684,0 2.32265,2.11238 4.2969,4.44713 5.92275,7.00421 6.85181,10.00602 11.26486,20.79028 15.44563,31.57455 12.77456,32.90868 22.06516,66.5956 32.51708,100.06017 9.639,30.90747 19.27799,61.81495 32.86548,91.72181 7.20022,15.89845 15.56175,31.46337 27.75567,45.4718 12.31004,14.1196 28.45246,23.79208 49.3563,27.6833 2.09038,0.33354 3.83236,0.44473 5.22596,-1.00059 0.92906,-0.77825 1.04518,-2.11239 0.34839,-3.22416 z"
   id="path1366"
   style="fill:#61c0cf;stroke:#0e3c19;stroke-width:5;stroke-linecap:butt;stroke-linejoin:bevel;stroke-miterlimit:4;stroke-dasharray:none;stroke-dashoffset:0;stroke-opacity:1" />
<path
   class="st4"
   d="m 479.81721,515.00067 c -14.4359,-5.39472 -28.16988,-14.24722 -40.30008,-26.28076 -5.81431,-5.94758 -11.5285,-12.44851 -16.8416,-19.22619 -10.42594,-14.38498 -24.56077,-37.76099 -33.38289,-53.80562 -0.1,-0.13836 -0.20027,-0.27655 -0.30043,-0.41497 v 0 l -8.52124,-16.18361 C 368.54149,376.26713 357.11319,352.89158 343.78,331.17565 c -7.81932,-12.72561 -16.1398,-24.75903 -27.06702,-33.47299 -7.11769,-5.67124 -14.7364,-8.991 -23.15711,-8.16102 -8.02021,0.83005 -15.13756,5.11798 -21.55343,11.06541 -12.13,11.34235 -21.35315,26.28066 -30.17493,41.63406 -13.33294,23.09906 -25.06199,47.58158 -37.79345,71.23368 -12.23043,22.68417 -25.06218,44.81529 -40.90125,63.62624 -18.34567,22.13127 -40.80117,36.65465 -64.860761,41.91072 -8.120116,1.93635 -16.340479,3.04293 -24.560834,4.28771 -2.004973,0.27675 -3.007454,1.65998 -2.907196,4.14964 0.100241,2.48953 1.303223,4.01126 3.408441,4.01126 0.801975,0 1.603971,0 2.405951,-0.13832 7.318135,-1.24504 14.536012,-2.21309 21.854142,-3.87294 27.468177,-6.2245 51.226737,-21.9926 71.276627,-46.88995 16.44076,-20.47112 29.87396,-44.12319 42.70573,-68.329 13.03228,-24.48241 25.06192,-49.79481 39.29711,-73.30883 8.02005,-13.27848 16.54095,-26.14209 27.96949,-34.99439 10.72653,-8.29929 21.5534,-8.43754 32.48017,-0.27661 6.9172,5.11765 12.6314,12.03366 17.94474,19.50277 9.62382,13.41689 17.74401,28.21699 25.66356,43.15552 8.42088,15.90643 21.75362,41.63354 30.17463,57.81675 v 0 l 0.20041,0.41506 v 0 0 c 10.32561,18.11955 21.35296,35.40968 32.98174,51.86919 v 0 l 0.30091,0.41496 0.10021,0.13813 v 0 c 16.541,21.3012 35.68836,37.34621 58.34442,45.6454 3.90972,1.38321 5.91476,0.96811 6.4158,-2.21317 0.70185,-4.14958 -2.20534,-4.56471 -4.51089,-5.39426 z"
   id="path1368"
   style="fill:#ffd556;stroke:#0e3c19;stroke-width:5;stroke-linecap:butt;stroke-linejoin:bevel;stroke-miterlimit:4;stroke-dasharray:none;stroke-dashoffset:0;stroke-opacity:1" />
<path
   class="st14"
   d="M736.4,638.4V214.1l-29.3-16.9L429.3,36.8L369,2l-60.3,34.8L30.9,197.2L1.6,214.1v424.3l29.3,16.9l281.3,162.4  l56.9,32.8l56.9-32.8l281.3-162.4L736.4,638.4z M30.9,622.5V232.1L369,36.8l0,0l338.1,195.2v390.4L369,817.7L30.9,622.5z"
   id="path1370"
   style="fill:#0e3c19" />
<text
   xml:space="preserve"
   id="text3423"
   style="font-style:normal;font-variant:normal;font-weight:bold;font-stretch:normal;font-size:192px;line-height:1.25;font-family:Ubuntu;-inkscape-font-specification:'Ubuntu Bold';white-space:pre;shape-inside:url(#rect3425);fill:#ffffff;fill-opacity:1;stroke:none;"
   transform="translate(44.351036,-103.76994)"><tspan
     x="127.0625"
     y="731.50139"><tspan
       style="font-style:normal;font-variant:normal;font-weight:bold;font-stretch:normal;font-size:96px;font-family:sans-serif;-inkscape-font-specification:'sans-serif Bold';fill:#ffffff">ECOMIX</tspan></tspan></text><g
   inkscape:groupmode="layer"
   id="layer1"
   inkscape:label="Layer 1" /></svg>
