<?xml version="1.0" encoding="UTF-8" standalone="no"?>
<svg
   xmlns:osb="http://www.openswatchbook.org/uri/2009/osb"
   xmlns:dc="http://purl.org/dc/elements/1.1/"
   xmlns:cc="http://creativecommons.org/ns#"
   xmlns:rdf="http://www.w3.org/1999/02/22-rdf-syntax-ns#"
   xmlns:svg="http://www.w3.org/2000/svg"
   xmlns="http://www.w3.org/2000/svg"
   xmlns:sodipodi="http://sodipodi.sourceforge.net/DTD/sodipodi-0.dtd"
   xmlns:inkscape="http://www.inkscape.org/namespaces/inkscape"
   version="1.1"
   id="Layer_1"
   x="0px"
   y="0px"
   viewBox="0 0 738 852"
   style="enable-background:new 0 0 738 852;"
   xml:space="preserve"
   sodipodi:docname="logo.svg"
   inkscape:version="1.0.1 (1.0.1+r74)"
   inkscape:export-filename="/home/woo457/Dropbox/ecomix/man/figures/logo.png"
   inkscape:export-xdpi="96"
   inkscape:export-ydpi="96"><metadata
   id="metadata1377"><rdf:RDF><cc:Work
       rdf:about=""><dc:format>image/svg+xml</dc:format><dc:type
         rdf:resource="http://purl.org/dc/dcmitype/StillImage" /></cc:Work></rdf:RDF></metadata><defs
   id="defs1375"><linearGradient
     id="linearGradient3463"
     osb:paint="solid"><stop
       style="stop-color:#000000;stop-opacity:1;"
       offset="0"
       id="stop3461" /></linearGradient><rect
     x="127.06258"
     y="552.46236"
     width="559.45147"
     height="247.03684"
     id="rect3425" /><linearGradient
     id="linearGradient3359"
     osb:paint="solid"><stop
       style="stop-color:#000000;stop-opacity:1;"
       offset="0"
       id="stop3357" /></linearGradient></defs><sodipodi:namedview
   pagecolor="#ffffff"
   bordercolor="#666666"
   borderopacity="1"
   objecttolerance="10"
   gridtolerance="10"
   guidetolerance="10"
   inkscape:pageopacity="0"
   inkscape:pageshadow="2"
   inkscape:window-width="1848"
   inkscape:window-height="1016"
   id="namedview1373"
   showgrid="false"
   inkscape:zoom="0.76408451"
   inkscape:cx="32.85714"
   inkscape:cy="478.35023"
   inkscape:window-x="72"
   inkscape:window-y="27"
   inkscape:window-maximized="1"
   inkscape:current-layer="Layer_1"
   inkscape:document-rotation="0" />
<style
   type="text/css"
   id="style1124">
	.st0{fill:#141227;}
	.st1{opacity:0.94;}
	.st2{fill:#FFFFFF;}
	.st3{opacity:0.8;fill:#F2F2F2;enable-background:new    ;}
	.st4{fill:#00A5DC;}
	.st5{fill:#FFF34D;}
	.st6{fill:#B57AB4;}
	.st7{fill:#DB1F26;}
	.st8{fill:#F7A238;}
	.st9{fill:#164F86;}
	.st10{fill:#36A85D;}
	.st11{fill:#F26524;}
	.st12{fill:#EF4782;}
	.st13{fill:#0088C5;}
	.st14{fill:#404040;}
</style>
<title
   id="title1126">tidyposterior</title>
<polygon
   class="st0"
   points="718.4,222.8 369,21 369,21 19.6,222.8 19.6,626.3 369,828 718.4,626.3 "
   id="polygon1128"
   style="fill:#228c3a" />
<g
   class="st1"
   id="g1156">
	
	
	
	
	
	
	
	
	
	
	
	
	
</g>







































































































<path
   id="path1364"
   style="fill:#20c997;stroke:#0e3c19;stroke-width:7.62768;stroke-linecap:butt;stroke-linejoin:bevel;stroke-miterlimit:4;stroke-dasharray:none;stroke-dashoffset:0;stroke-opacity:1"
   d="m 370.60943,152.39117 c -6.4462,0.15548 -12.39396,3.60062 -16.57297,8.21264 -3.87882,3.92453 -6.50656,8.79422 -8.82868,13.69222 -8.18779,16.64289 -13.01288,34.56364 -17.80609,52.33542 -8.00568,29.6847 -14.30503,59.75752 -21.39233,89.64745 -4.84461,20.89007 -9.46377,41.78805 -14.85447,62.5572 -2.8832,11.21059 -5.93525,22.32107 -9.10787,33.46349 -0.87516,3.07198 -1.96208,6.07881 -3.13523,9.05356 -0.74678,2.06822 -0.86134,4.30448 -1.74352,6.33612 -1.41134,4.29651 -2.73717,8.68065 -4.16709,12.89653 -1.16022,3.3762 -2.41514,6.89675 -3.72665,10.28857 -4.32923,11.251 -9.59584,22.37556 -16.08899,32.69158 -5.04116,7.96983 -11.21949,15.5343 -19.40911,20.64452 -5.202,3.27601 -11.05448,5.48146 -17.06446,6.89851 -4.83128,1.45909 -8.56174,6.28416 -7.97224,11.26918 0.45967,6.04298 6.6016,11.02215 12.81408,10.37804 3.82702,-0.30294 7.45931,-1.61988 11.08489,-2.75662 12.41478,-4.30419 23.51059,-11.98474 31.93316,-21.80701 9.63085,-10.94598 16.55886,-23.83381 22.42883,-36.9739 4.59763,-10.45496 8.66435,-21.12744 12.33086,-31.92144 3.08339,-9.53967 5.74361,-19.18849 8.56963,-28.79765 8.58835,-29.74742 15.54992,-59.90494 22.31792,-90.08236 4.68821,-20.67765 9.58206,-41.28059 14.46296,-61.92337 3.63573,-15.49591 7.7419,-30.8868 12.19901,-46.17863 3.40773,-11.40163 7.41229,-22.72072 13.25847,-33.18515 0.30572,-0.54939 0.6375,-1.08443 0.9601,-1.62454 2.02171,2.99863 3.41369,6.27351 4.98237,9.48736 1.01191,2.19301 1.93902,4.42139 2.83707,6.66022 0.24408,0.62505 0.59807,1.5519 0.88434,2.29276 4.39478,11.62922 7.46701,23.57993 10.67083,35.56051 2.808,10.65002 5.58925,21.3071 8.26956,31.98823 0.0237,2.0778 0.46147,4.13547 1.27568,6.0548 1.18417,3.47252 1.67407,7.11252 2.28189,10.70622 0.41932,1.12972 0.90402,2.23834 1.0526,3.44082 4.84805,22.10703 10.1262,44.12266 15.25649,66.16912 5.40899,22.89255 10.93965,45.76966 17.53514,68.37249 5.94283,20.16166 12.83251,40.11691 21.8104,59.21396 6.22389,12.89508 13.9752,25.28051 24.30333,35.48568 8.95312,8.71101 20.21704,15.19417 32.4543,18.45854 3.31558,0.89655 6.90046,1.79831 10.29367,0.73353 3.48631,-0.97571 6.39115,-3.60579 7.65216,-6.90555 1.58494,-3.86193 0.77125,-8.69204 -2.46146,-11.53877 -2.61515,-2.57646 -6.3968,-3.31636 -9.84796,-4.25871 -6.45791,-1.93101 -12.46822,-5.23143 -17.53043,-9.57138 -0.47074,-0.41283 -1.17282,-1.02925 -1.71259,-1.54809 -2.92503,-2.85552 -5.59436,-5.95613 -8.08658,-9.17297 -7.06408,-9.21501 -12.18418,-19.65633 -16.613,-30.26037 -5.60341,-13.28056 -10.34923,-27.01151 -14.47519,-40.65385 -7.37418,-24.42904 -13.54592,-49.17767 -19.45393,-73.9583 -5.58816,-23.66926 -10.87057,-47.40504 -16.25182,-71.119 -1.44397,-6.63201 -2.92334,-13.25781 -4.66497,-19.82342 -1.89288,-7.66489 -3.86271,-15.30838 -5.88047,-22.92078 -5.14161,-19.63529 -10.60302,-39.34065 -19.41464,-57.77679 -2.97828,-6.07408 -6.99256,-11.83792 -12.54124,-15.96756 -3.74819,-2.76734 -8.37554,-4.41703 -13.11576,-4.26306 z" />
<path
   id="path1366"
   style="fill:#61c0cf;stroke:#0e3c19;stroke-width:7.81037;stroke-linecap:butt;stroke-linejoin:bevel;stroke-miterlimit:4;stroke-dasharray:none;stroke-dashoffset:0;stroke-opacity:1"
   d="m 488.53063,203.65625 c -7.80122,0.14116 -15.12019,3.89002 -20.41941,9.10293 -7.60319,7.1561 -12.72515,16.18614 -17.28436,25.23301 -2.59699,4.9109 -5.25522,9.81015 -7.23813,14.97589 -6.02648,14.58172 -11.05787,29.49957 -16.13723,44.38749 -9.1032,26.79657 -17.69348,53.74294 -26.76844,80.5478 -7.43915,21.80516 -15.47553,43.45085 -25.17905,64.50138 -3.73282,8.20199 -7.9657,16.21674 -12.9822,23.80073 -1.15514,1.96117 -2.00927,4.10632 -3.60737,5.80876 -1.86288,2.53911 -3.37112,5.29391 -5.36293,7.75332 -0.89052,1.19673 -1.97809,2.53138 -2.84334,3.57619 -1.73459,2.0549 -3.56488,4.0378 -5.48395,5.94336 -0.29455,0.2919 -0.89136,0.86288 -1.30162,1.26161 -0.71439,0.6626 -1.7071,1.59055 -2.56792,2.33158 -5.22851,4.54275 -10.95545,8.68733 -17.44602,11.52633 -6.8265,3.09515 -14.19683,4.98813 -21.63862,6.24962 -4.05724,0.85053 -7.99814,3.26621 -9.51664,7.02148 -2.08306,4.96663 0.34715,11.0752 5.26468,13.7079 3.67595,2.07481 8.22301,1.83553 12.24826,0.93753 12.73138,-2.42717 25.09382,-6.84254 35.99362,-13.51184 6.83661,-4.13575 12.9819,-9.21839 18.4178,-14.88157 5.75001,-5.95144 10.88774,-12.40234 15.6738,-19.05258 1.67858,-2.44448 3.33676,-4.91173 4.63666,-7.55516 11.57206,-19.04001 20.33645,-39.42922 28.34162,-59.97286 10.11883,-25.93317 18.52657,-52.40732 27.261,-78.76712 8.04854,-23.99973 16.37536,-48.04774 24.9775,-71.90128 1.49044,-4.41734 3.78976,-8.5387 5.64421,-12.82335 3.61333,-7.87816 7.46951,-15.75208 12.8575,-22.72536 1.51008,-1.84324 3.06176,-3.72955 5.14868,-5.03438 3.20205,2.20978 5.48462,5.35536 7.59795,8.46165 3.09753,4.50818 5.72182,9.28453 8.08867,14.16139 0.34039,0.73012 0.78574,1.62948 1.13066,2.38053 2.8884,6.20136 5.46554,12.68902 8.02984,19.08143 12.50759,31.57329 22.08001,64.06109 32.87249,96.16208 10.51086,31.52325 21.30519,63.10296 36.35147,93.03602 8.24925,16.45641 18.22826,32.37141 31.54572,45.70587 12.29561,12.29669 28.40434,21.12993 45.78027,25.41979 4.09721,1.02658 8.25715,1.95933 12.49426,2.26385 5.25549,0.12794 10.69922,-2.89491 12.36514,-7.69271 1.56717,-4.44411 -0.37009,-9.70115 -4.53354,-12.29265 -2.98249,-1.97657 -6.70336,-2.3163 -10.17896,-2.99389 -1.6986,-0.34658 -3.61549,-0.79151 -5.36744,-1.28517 -3.92436,-1.08898 -7.99648,-2.58613 -11.75162,-4.35842 -8.32528,-3.89326 -15.79183,-9.36672 -21.83119,-15.99768 -6.70363,-7.21067 -12.48022,-15.14869 -17.45735,-23.48959 -6.39912,-10.69379 -11.70193,-22.10541 -16.70859,-33.48749 -4.07468,-9.2809 -7.82401,-18.72942 -11.33328,-28.15908 -7.37126,-19.84436 -13.83262,-39.87414 -20.50825,-59.9254 -6.83784,-20.596 -13.47856,-41.26361 -20.63394,-61.77357 -6.2919,-17.7796 -13.23967,-35.43407 -22.48311,-52.07692 -4.38597,-7.63316 -9.77534,-14.99762 -17.19819,-20.31253 -4.87686,-3.35127 -10.8689,-5.41308 -16.95911,-5.26892 z" />
<path
   id="path1368"
   style="fill:#ffd556;stroke:#0e3c19;stroke-width:7.55906;stroke-linecap:butt;stroke-linejoin:bevel;stroke-miterlimit:4;stroke-dasharray:none;stroke-dashoffset:0;stroke-opacity:1"
   d="m 294.90625,281.43164 c -8.88725,0.33232 -17.31416,4.259 -24.17302,9.76282 -9.46875,7.59727 -16.99108,17.28489 -23.74574,27.29306 -7.04116,10.54323 -13.20753,21.63541 -19.33016,32.72726 -8.89722,16.31069 -17.24629,32.96908 -25.85655,49.3946 -7.43362,14.13437 -15.09224,28.16532 -23.54883,41.71874 -0.79428,1.24344 -1.62149,2.58286 -2.43745,3.83441 -6.63405,10.29467 -13.89686,20.33961 -22.06069,29.56036 -11.82444,13.36162 -26.39942,24.55711 -43.06729,31.14442 -4.47181,1.78965 -9.1453,3.19486 -13.774643,4.25964 -7.950417,1.87311 -15.95425,2.96627 -24.016917,4.23152 -3.589977,0.3185 -6.945997,2.49614 -8.640451,5.6843 -2.645446,5.04251 -1.716227,11.91809 2.620729,15.7444 2.987252,2.65475 7.293563,3.08072 11.088955,2.40952 12.137964,-1.94905 24.418337,-3.69906 36.027437,-7.91284 19.33671,-6.77888 36.70495,-18.59028 50.93839,-33.24887 11.59275,-11.90581 21.27806,-25.50444 30.22073,-39.46617 13.72913,-21.61309 25.39997,-44.43395 37.14529,-67.1597 9.38597,-18.236 18.80914,-36.4895 29.71177,-53.87981 1.74678,-2.76384 3.60312,-5.63633 5.50781,-8.36524 0.43317,-0.60127 0.94249,-1.34628 1.38791,-1.95215 4.75772,-6.57191 10.13114,-12.82086 16.67905,-17.67255 3.5528,-2.55489 7.95707,-4.46997 12.4149,-3.77258 5.10525,0.7721 9.38021,3.98927 13.11971,7.35431 6.84095,6.25138 12.11735,13.94989 17.25441,21.6002 9.16003,13.90369 16.81916,28.64387 24.58449,43.34472 9.07681,17.26041 17.98698,34.60934 27.09552,51.85264 10.39624,18.063 21.55163,35.70453 33.72974,52.62169 12.50255,15.98295 27.49062,30.35677 45.34394,40.21828 6.05558,3.29983 12.32755,6.30845 18.96784,8.23058 3.96254,0.95637 8.62483,0.0641 11.3342,-3.16199 3.18934,-3.69621 3.85583,-9.27539 1.90275,-13.70612 -1.58685,-3.29974 -4.83164,-5.528 -8.29514,-6.49052 -11.59658,-4.2318 -22.28475,-10.78258 -31.62478,-18.82588 -1.00748,-0.86222 -2.24014,-1.97093 -3.19922,-2.85938 -6.57936,-6.18499 -12.51228,-13.0234 -18.16789,-20.05231 -4.12943,-5.40383 -7.79858,-11.13929 -11.51849,-16.82748 -7.78905,-12.12735 -15.21411,-24.62506 -22.2624,-37.29076 -4.03348,-7.3492 -7.89638,-14.911 -11.80552,-22.37968 -12.43665,-23.90651 -24.39634,-48.14669 -39.16459,-70.73601 -6.92545,-10.47758 -14.82592,-20.54379 -24.87994,-28.20204 -6.13323,-4.65195 -13.35341,-8.17276 -21.09743,-8.88646 -1.46421,-0.14478 -2.93803,-0.1842 -4.40843,-0.13893 z" />
<path
   class="st14"
   d="M736.4,638.4V214.1l-29.3-16.9L429.3,36.8L369,2l-60.3,34.8L30.9,197.2L1.6,214.1v424.3l29.3,16.9l281.3,162.4  l56.9,32.8l56.9-32.8l281.3-162.4L736.4,638.4z M30.9,622.5V232.1L369,36.8l0,0l338.1,195.2v390.4L369,817.7L30.9,622.5z"
   id="path1370"
   style="fill:#0e3c19"
   inkscape:export-xdpi="96"
   inkscape:export-ydpi="96" />
<text
   xml:space="preserve"
   id="text3423"
   style="font-style:normal;font-variant:normal;font-weight:bold;font-stretch:normal;font-size:192px;line-height:1.25;font-family:Ubuntu;-inkscape-font-specification:'Ubuntu Bold';white-space:pre;shape-inside:url(#rect3425);fill:#ffffff;fill-opacity:1;stroke:none;"
   transform="translate(44.351036,-103.76994)"><tspan
     x="127.0625"
     y="731.50139"><tspan
       style="font-style:normal;font-variant:normal;font-weight:bold;font-stretch:normal;font-size:96px;font-family:sans-serif;-inkscape-font-specification:'sans-serif Bold';fill:#ffffff">ECOMIX</tspan></tspan></text><g
   inkscape:groupmode="layer"
   id="layer1"
   inkscape:label="Layer 1" /></svg>
